<?xml version="1.0" encoding="UTF-8"?>
<svg width="256px" height="256px" viewBox="0 0 256 256" version="1.1" xmlns="http://www.w3.org/2000/svg" xmlns:xlink="http://www.w3.org/1999/xlink">
    <!-- Generator: Sketch 49.3 (51167) - http://www.bohemiancoding.com/sketch -->
    <title>Extension</title>
    <desc>Created with Sketch.</desc>
    <defs></defs>
    <g id="Page-1" stroke="none" stroke-width="1" fill="none" fill-rule="evenodd">
        <g id="Extension">
            <rect id="Rectangle" fill="#EC6801" x="0" y="0" width="256" height="256"></rect>
            <path d="M209.125261,106.936458 C210.415104,105.911198 212.333333,106.870313 212.333333,108.490885 L212.333333,176.125 C212.333333,184.889323 205.222656,192 196.458333,192 L58.875,192 C50.1106771,192 43,184.889323 43,176.125 L43,108.523958 C43,106.870313 44.8851563,105.944271 46.2080729,106.969531 C53.6164062,112.724219 63.4390625,120.033333 97.1734375,144.540365 C104.151823,149.633594 115.925781,160.349219 127.666667,160.283073 C139.473697,160.382292 151.479167,149.435156 158.192969,144.540365 C191.927344,120.033333 201.716928,112.691146 209.125261,106.936458 Z M127.666667,149.666667 C135.339583,149.798958 146.385938,140.009375 151.942187,135.974479 C195.829947,104.12526 199.170312,101.347135 209.290625,93.4096354 C211.208854,91.9213542 212.333333,89.60625 212.333333,87.1588542 L212.333333,80.875 C212.333333,72.1106771 205.222656,65 196.458333,65 L58.875,65 C50.1106771,65 43,72.1106771 43,80.875 L43,87.1588542 C43,89.60625 44.1244792,91.8882812 46.0427083,93.4096354 C56.1630208,101.314062 59.5033854,104.12526 103.391146,135.974479 C108.947396,140.009375 119.99375,149.798958 127.666667,149.666667 Z" id="Shape" fill="#FFFFFF" fill-rule="nonzero"></path>
        </g>
    </g>
</svg>