<svg version="1.1" viewBox="0 0 256 256" xmlns="http://www.w3.org/2000/svg"><title>Extension Icon</title><g fill="none" fill-rule="evenodd"><rect width="256" height="256" fill="#EC6801"/><path d="m209.13 106.94c1.2898-1.0253 3.2081-0.066145 3.2081 1.5544v67.634c0 8.7643-7.1107 15.875-15.875 15.875h-137.58c-8.7643 0-15.875-7.1107-15.875-15.875v-67.601c0-1.6536 1.8852-2.5797 3.2081-1.5544 7.4083 5.7547 17.231 13.064 50.965 37.571 6.9784 5.0932 18.752 15.809 30.493 15.743 11.807 0.099219 23.812-10.848 30.526-15.743 33.734-24.507 43.524-31.849 50.932-37.604zm-81.459 42.73c7.6729 0.13229 18.719-9.6573 24.276-13.692 43.888-31.849 47.228-34.627 57.348-42.565 1.9182-1.4883 3.0427-3.8034 3.0427-6.2508v-6.2839c0-8.7643-7.1107-15.875-15.875-15.875h-137.58c-8.7643 0-15.875 7.1107-15.875 15.875v6.2839c0 2.4474 1.1245 4.7294 3.0427 6.2508 10.12 7.9044 13.461 10.716 57.348 42.565 5.5562 4.0349 16.603 13.824 24.276 13.692z" fill="#fff" fill-rule="nonzero"/></g></svg>
